<svg xmlns="http://www.w3.org/2000/svg" viewBox="0 0 80 80" width="80" height="80"><path fill="#8BB7F0" d="M40 77.5C19.3 77.5 2.5 60.7 2.5 40S19.3 2.5 40 2.5 77.5 19.3 77.5 40 60.7 77.5 40 77.5Z"/><path fill="#4E7AB5" d="M40 3c20.4 0 37 16.6 37 37S60.4 77 40 77 3 60.4 3 40 19.6 3 40 3m0-1C19 2 2 19 2 40s17 38 38 38 38-17 38-38S61 2 40 2Z"/><path fill="#fff" d="M40 71.5C22.6 71.5 8.5 57.4 8.5 40S22.6 8.5 40 8.5 71.5 22.6 71.5 40 57.4 71.5 40 71.5Z"/><path fill="#4E7AB5" d="M40 9c17.1 0 31 13.9 31 31S57.1 71 40 71 9 57.1 9 40 22.9 9 40 9m0-1C22.3 8 8 22.3 8 40s14.3 32 32 32 32-14.3 32-32S57.7 8 40 8Z"/><path fill="#FFC49C" d="m18.1 18.1 21.9 22V9c-8.6 0-16.3 3.5-21.9 9.1Z"/><path fill="none" stroke="#66798F" stroke-linecap="round" stroke-width="2" d="m21 21 19 19-8.7 13.7"/><circle cx="40" cy="40" r="3" fill="#66798F"/><g fill="#C5D4DE"><circle cx="40" cy="13" r="2"/><circle cx="40" cy="67" r="2"/><circle cx="67" cy="40" r="2"/><circle cx="13" cy="40" r="2"/><circle cx="26.5" cy="16.6" r="1"/><circle cx="53.5" cy="63.4" r="1"/><circle cx="53.5" cy="16.6" r="1"/><circle cx="26.5" cy="63.4" r="1"/><circle cx="16.6" cy="53.5" r="1"/><circle cx="63.4" cy="26.5" r="1"/><circle cx="16.6" cy="26.5" r="1"/><circle cx="63.4" cy="53.5" r="1"/></g></svg>
